{
    "asset" : {
        "generator" : "Khronos glTF Blender I/O v1.6.16",
        "version" : "2.0"
    },
    "extensionsUsed" : [
        "KHR_materials_clearcoat"
    ],
    "scene" : 0,
    "scenes" : [
        {
            "name" : "Scene",
            "nodes" : [
                0
            ]
        }
    ],
    "nodes" : [
        {
            "mesh" : 0,
            "name" : "Plane.040",
            "translation" : [
                -9.846302032470703,
                0,
                -27.307065963745117
            ]
        }
    ],
    "materials" : [
        {
            "doubleSided" : true,
            "extensions" : {
                "KHR_materials_clearcoat" : {
                    "clearcoatFactor" : 1,
                    "clearcoatRoughnessFactor" : 0.029999999329447746
                }
            },
            "name" : "chrome",
            "pbrMetallicRoughness" : {
                "metallicFactor" : 0.9162161946296692,
                "roughnessFactor" : 0
            }
        },
        {
            "doubleSided" : true,
            "extensions" : {
                "KHR_materials_clearcoat" : {
                    "clearcoatFactor" : 1,
                    "clearcoatRoughnessFactor" : 0.029999999329447746
                }
            },
            "name" : "metallic_paint.001",
            "pbrMetallicRoughness" : {
                "metallicFactor" : 0.6000000238418579
            }
        },
        {
            "alphaMode" : "BLEND",
            "name" : "glass_window",
            "pbrMetallicRoughness" : {}
        },
        {
            "doubleSided" : true,
            "name" : "RUBBER.001",
            "pbrMetallicRoughness" : {}
        },
        {
            "doubleSided" : true,
            "name" : "RUBBER",
            "pbrMetallicRoughness" : {}
        },
        {
            "doubleSided" : true,
            "extensions" : {
                "KHR_materials_clearcoat" : {
                    "clearcoatFactor" : 1,
                    "clearcoatRoughnessFactor" : 0.029999999329447746
                }
            },
            "name" : "chrome.002",
            "pbrMetallicRoughness" : {
                "baseColorFactor" : [
                    0.800000011920929,
                    0.800000011920929,
                    0.800000011920929,
                    1
                ],
                "metallicFactor" : 0.699999988079071,
                "roughnessFactor" : 0
            }
        },
        {
            "doubleSided" : true,
            "name" : "RUBBER.006",
            "pbrMetallicRoughness" : {}
        },
        {
            "doubleSided" : true,
            "name" : "Material",
            "pbrMetallicRoughness" : {
                "baseColorFactor" : [
                    0.04720775783061981,
                    0.04720775783061981,
                    0.04720775783061981,
                    1
                ],
                "metallicFactor" : 0.7018348574638367,
                "roughnessFactor" : 0.5
            }
        }
    ],
    "meshes" : [
        {
            "name" : "Plane.105",
            "primitives" : [
                {
                    "attributes" : {
                        "POSITION" : 0,
                        "NORMAL" : 1,
                        "TEXCOORD_0" : 2
                    },
                    "indices" : 3,
                    "material" : 0
                },
                {
                    "attributes" : {
                        "POSITION" : 4,
                        "NORMAL" : 5,
                        "TEXCOORD_0" : 6
                    },
                    "indices" : 7,
                    "material" : 1
                },
                {
                    "attributes" : {
                        "POSITION" : 8,
                        "NORMAL" : 9,
                        "TEXCOORD_0" : 10
                    },
                    "indices" : 11,
                    "material" : 2
                },
                {
                    "attributes" : {
                        "POSITION" : 12,
                        "NORMAL" : 13,
                        "TEXCOORD_0" : 14
                    },
                    "indices" : 15,
                    "material" : 3
                },
                {
                    "attributes" : {
                        "POSITION" : 16,
                        "NORMAL" : 17,
                        "TEXCOORD_0" : 18
                    },
                    "indices" : 19,
                    "material" : 4
                },
                {
                    "attributes" : {
                        "POSITION" : 20,
                        "NORMAL" : 21,
                        "TEXCOORD_0" : 22
                    },
                    "indices" : 23,
                    "material" : 5
                },
                {
                    "attributes" : {
                        "POSITION" : 24,
                        "NORMAL" : 25,
                        "TEXCOORD_0" : 26
                    },
                    "indices" : 27,
                    "material" : 6
                },
                {
                    "attributes" : {
                        "POSITION" : 28,
                        "NORMAL" : 29,
                        "TEXCOORD_0" : 30
                    },
                    "indices" : 31,
                    "material" : 7
                }
            ]
        }
    ],
    "accessors" : [
        {
            "bufferView" : 0,
            "componentType" : 5126,
            "count" : 273,
            "max" : [
                0.7137964367866516,
                0.30627408623695374,
                1.5362588167190552
            ],
            "min" : [
                -0.7137961387634277,
                -0.11921694874763489,
                -1.3324172496795654
            ],
            "type" : "VEC3"
        },
        {
            "bufferView" : 1,
            "componentType" : 5126,
            "count" : 273,
            "type" : "VEC3"
        },
        {
            "bufferView" : 2,
            "componentType" : 5126,
            "count" : 273,
            "type" : "VEC2"
        },
        {
            "bufferView" : 3,
            "componentType" : 5123,
            "count" : 1740,
            "type" : "SCALAR"
        },
        {
            "bufferView" : 4,
            "componentType" : 5126,
            "count" : 18547,
            "max" : [
                0.7143636345863342,
                0.5964556336402893,
                1.538692831993103
            ],
            "min" : [
                -0.7144997119903564,
                -0.37025442719459534,
                -1.5826607942581177
            ],
            "type" : "VEC3"
        },
        {
            "bufferView" : 5,
            "componentType" : 5126,
            "count" : 18547,
            "type" : "VEC3"
        },
        {
            "bufferView" : 6,
            "componentType" : 5126,
            "count" : 18547,
            "type" : "VEC2"
        },
        {
            "bufferView" : 7,
            "componentType" : 5123,
            "count" : 150420,
            "type" : "SCALAR"
        },
        {
            "bufferView" : 8,
            "componentType" : 5126,
            "count" : 345,
            "max" : [
                0.5590495467185974,
                0.5593920350074768,
                0.7567958831787109
            ],
            "min" : [
                -0.5590528249740601,
                0.17505593597888947,
                -1.3800811767578125
            ],
            "type" : "VEC3"
        },
        {
            "bufferView" : 9,
            "componentType" : 5126,
            "count" : 345,
            "type" : "VEC3"
        },
        {
            "bufferView" : 10,
            "componentType" : 5126,
            "count" : 345,
            "type" : "VEC2"
        },
        {
            "bufferView" : 11,
            "componentType" : 5123,
            "count" : 2628,
            "type" : "SCALAR"
        },
        {
            "bufferView" : 12,
            "componentType" : 5126,
            "count" : 1566,
            "max" : [
                0.644349992275238,
                0.2864564061164856,
                0.569703996181488
            ],
            "min" : [
                -0.644349992275238,
                -0.33068910241127014,
                -0.9360795617103577
            ],
            "type" : "VEC3"
        },
        {
            "bufferView" : 13,
            "componentType" : 5126,
            "count" : 1566,
            "type" : "VEC3"
        },
        {
            "bufferView" : 14,
            "componentType" : 5126,
            "count" : 1566,
            "type" : "VEC2"
        },
        {
            "bufferView" : 15,
            "componentType" : 5123,
            "count" : 11880,
            "type" : "SCALAR"
        },
        {
            "bufferView" : 16,
            "componentType" : 5126,
            "count" : 1143,
            "max" : [
                0.654760479927063,
                0.009075763635337353,
                1.4007714986801147
            ],
            "min" : [
                -0.6547321081161499,
                -0.36775755882263184,
                -1.4917161464691162
            ],
            "type" : "VEC3"
        },
        {
            "bufferView" : 17,
            "componentType" : 5126,
            "count" : 1143,
            "type" : "VEC3"
        },
        {
            "bufferView" : 18,
            "componentType" : 5126,
            "count" : 1143,
            "type" : "VEC2"
        },
        {
            "bufferView" : 19,
            "componentType" : 5123,
            "count" : 8364,
            "type" : "SCALAR"
        },
        {
            "bufferView" : 20,
            "componentType" : 5126,
            "count" : 13605,
            "max" : [
                0.6429742574691772,
                -0.10226401686668396,
                1.115499496459961
            ],
            "min" : [
                -0.6428789496421814,
                -0.5090791583061218,
                -1.18133544921875
            ],
            "type" : "VEC3"
        },
        {
            "bufferView" : 21,
            "componentType" : 5126,
            "count" : 13605,
            "type" : "VEC3"
        },
        {
            "bufferView" : 22,
            "componentType" : 5126,
            "count" : 13605,
            "type" : "VEC2"
        },
        {
            "bufferView" : 23,
            "componentType" : 5123,
            "count" : 79932,
            "type" : "SCALAR"
        },
        {
            "bufferView" : 24,
            "componentType" : 5126,
            "count" : 2782,
            "max" : [
                0.6428762078285217,
                -0.0517522394657135,
                1.1656055450439453
            ],
            "min" : [
                -0.6430388689041138,
                -0.5624063611030579,
                -1.2328147888183594
            ],
            "type" : "VEC3"
        },
        {
            "bufferView" : 25,
            "componentType" : 5126,
            "count" : 2782,
            "type" : "VEC3"
        },
        {
            "bufferView" : 26,
            "componentType" : 5126,
            "count" : 2782,
            "type" : "VEC2"
        },
        {
            "bufferView" : 27,
            "componentType" : 5123,
            "count" : 16584,
            "type" : "SCALAR"
        },
        {
            "bufferView" : 28,
            "componentType" : 5126,
            "count" : 640,
            "max" : [
                0.3849680423736572,
                0.060073256492614746,
                1.465731143951416
            ],
            "min" : [
                -0.3636337220668793,
                -0.31326669454574585,
                1.4623929262161255
            ],
            "type" : "VEC3"
        },
        {
            "bufferView" : 29,
            "componentType" : 5126,
            "count" : 640,
            "type" : "VEC3"
        },
        {
            "bufferView" : 30,
            "componentType" : 5126,
            "count" : 640,
            "type" : "VEC2"
        },
        {
            "bufferView" : 31,
            "componentType" : 5123,
            "count" : 960,
            "type" : "SCALAR"
        }
    ],
    "bufferViews" : [
        {
            "buffer" : 0,
            "byteLength" : 3276,
            "byteOffset" : 0
        },
        {
            "buffer" : 0,
            "byteLength" : 3276,
            "byteOffset" : 3276
        },
        {
            "buffer" : 0,
            "byteLength" : 2184,
            "byteOffset" : 6552
        },
        {
            "buffer" : 0,
            "byteLength" : 3480,
            "byteOffset" : 8736
        },
        {
            "buffer" : 0,
            "byteLength" : 222564,
            "byteOffset" : 12216
        },
        {
            "buffer" : 0,
            "byteLength" : 222564,
            "byteOffset" : 234780
        },
        {
            "buffer" : 0,
            "byteLength" : 148376,
            "byteOffset" : 457344
        },
        {
            "buffer" : 0,
            "byteLength" : 300840,
            "byteOffset" : 605720
        },
        {
            "buffer" : 0,
            "byteLength" : 4140,
            "byteOffset" : 906560
        },
        {
            "buffer" : 0,
            "byteLength" : 4140,
            "byteOffset" : 910700
        },
        {
            "buffer" : 0,
            "byteLength" : 2760,
            "byteOffset" : 914840
        },
        {
            "buffer" : 0,
            "byteLength" : 5256,
            "byteOffset" : 917600
        },
        {
            "buffer" : 0,
            "byteLength" : 18792,
            "byteOffset" : 922856
        },
        {
            "buffer" : 0,
            "byteLength" : 18792,
            "byteOffset" : 941648
        },
        {
            "buffer" : 0,
            "byteLength" : 12528,
            "byteOffset" : 960440
        },
        {
            "buffer" : 0,
            "byteLength" : 23760,
            "byteOffset" : 972968
        },
        {
            "buffer" : 0,
            "byteLength" : 13716,
            "byteOffset" : 996728
        },
        {
            "buffer" : 0,
            "byteLength" : 13716,
            "byteOffset" : 1010444
        },
        {
            "buffer" : 0,
            "byteLength" : 9144,
            "byteOffset" : 1024160
        },
        {
            "buffer" : 0,
            "byteLength" : 16728,
            "byteOffset" : 1033304
        },
        {
            "buffer" : 0,
            "byteLength" : 163260,
            "byteOffset" : 1050032
        },
        {
            "buffer" : 0,
            "byteLength" : 163260,
            "byteOffset" : 1213292
        },
        {
            "buffer" : 0,
            "byteLength" : 108840,
            "byteOffset" : 1376552
        },
        {
            "buffer" : 0,
            "byteLength" : 159864,
            "byteOffset" : 1485392
        },
        {
            "buffer" : 0,
            "byteLength" : 33384,
            "byteOffset" : 1645256
        },
        {
            "buffer" : 0,
            "byteLength" : 33384,
            "byteOffset" : 1678640
        },
        {
            "buffer" : 0,
            "byteLength" : 22256,
            "byteOffset" : 1712024
        },
        {
            "buffer" : 0,
            "byteLength" : 33168,
            "byteOffset" : 1734280
        },
        {
            "buffer" : 0,
            "byteLength" : 7680,
            "byteOffset" : 1767448
        },
        {
            "buffer" : 0,
            "byteLength" : 7680,
            "byteOffset" : 1775128
        },
        {
            "buffer" : 0,
            "byteLength" : 5120,
            "byteOffset" : 1782808
        },
        {
            "buffer" : 0,
            "byteLength" : 1920,
            "byteOffset" : 1787928
        }
    ],
    "buffers" : [
        {
            "byteLength" : 1789848,
            "uri" : "data:application/octet-stream;base64,"
        }
    ]
}
