{
    "asset" : {
        "generator" : "Khronos glTF Blender I/O v1.6.16",
        "version" : "2.0"
    },
    "scene" : 0,
    "scenes" : [
        {
            "name" : "Scene",
            "nodes" : [
                0
            ]
        }
    ],
    "nodes" : [
        {
            "mesh" : 0,
            "name" : "Icosphere.004",
            "rotation" : [
                0.7071068286895752,
                0,
                0,
                0.7071067094802856
            ],
            "translation" : [
                -17.096004486083984,
                0,
                6.492661476135254
            ]
        }
    ],
    "materials" : [
        {
            "doubleSided" : true,
            "name" : "Metal.001",
            "pbrMetallicRoughness" : {
                "baseColorFactor" : [
                    0.800000011920929,
                    0.800000011920929,
                    0.800000011920929,
                    1
                ],
                "roughnessFactor" : 0.10000000149011612
            }
        },
        {
            "doubleSided" : true,
            "name" : "Ground.001",
            "pbrMetallicRoughness" : {
                "baseColorFactor" : [
                    0.05780300125479698,
                    0.05780300125479698,
                    0.05780300125479698,
                    1
                ],
                "metallicFactor" : 0,
                "roughnessFactor" : 0.5
            }
        }
    ],
    "meshes" : [
        {
            "name" : "Icosphere.004",
            "primitives" : [
                {
                    "attributes" : {
                        "POSITION" : 0,
                        "NORMAL" : 1,
                        "TEXCOORD_0" : 2
                    },
                    "indices" : 3,
                    "material" : 0
                },
                {
                    "attributes" : {
                        "POSITION" : 4,
                        "NORMAL" : 5,
                        "TEXCOORD_0" : 6
                    },
                    "indices" : 7,
                    "material" : 1
                }
            ]
        }
    ],
    "accessors" : [
        {
            "bufferView" : 0,
            "componentType" : 5126,
            "count" : 3406,
            "max" : [
                5.325139999389648,
                5.325101852416992,
                -0.004348829388618469
            ],
            "min" : [
                -5.327284336090088,
                -5.325531482696533,
                -5.324483871459961
            ],
            "type" : "VEC3"
        },
        {
            "bufferView" : 1,
            "componentType" : 5126,
            "count" : 3406,
            "type" : "VEC3"
        },
        {
            "bufferView" : 2,
            "componentType" : 5126,
            "count" : 3406,
            "type" : "VEC2"
        },
        {
            "bufferView" : 3,
            "componentType" : 5123,
            "count" : 7962,
            "type" : "SCALAR"
        },
        {
            "bufferView" : 4,
            "componentType" : 5126,
            "count" : 20,
            "max" : [
                5.325139999389648,
                5.325101852416992,
                -0.004348829388618469
            ],
            "min" : [
                -5.327284336090088,
                -5.325531482696533,
                -0.006069092079997063
            ],
            "type" : "VEC3"
        },
        {
            "bufferView" : 5,
            "componentType" : 5126,
            "count" : 20,
            "type" : "VEC3"
        },
        {
            "bufferView" : 6,
            "componentType" : 5126,
            "count" : 20,
            "type" : "VEC2"
        },
        {
            "bufferView" : 7,
            "componentType" : 5123,
            "count" : 54,
            "type" : "SCALAR"
        }
    ],
    "bufferViews" : [
        {
            "buffer" : 0,
            "byteLength" : 40872,
            "byteOffset" : 0
        },
        {
            "buffer" : 0,
            "byteLength" : 40872,
            "byteOffset" : 40872
        },
        {
            "buffer" : 0,
            "byteLength" : 27248,
            "byteOffset" : 81744
        },
        {
            "buffer" : 0,
            "byteLength" : 15924,
            "byteOffset" : 108992
        },
        {
            "buffer" : 0,
            "byteLength" : 240,
            "byteOffset" : 124916
        },
        {
            "buffer" : 0,
            "byteLength" : 240,
            "byteOffset" : 125156
        },
        {
            "buffer" : 0,
            "byteLength" : 160,
            "byteOffset" : 125396
        },
        {
            "buffer" : 0,
            "byteLength" : 108,
            "byteOffset" : 125556
        }
    ],
    "buffers" : [
        {
            "byteLength" : 125664,
            "uri" : "data:application/octet-stream;base64,"
        }
    ]
}
