{
    "asset" : {
        "generator" : "Khronos glTF Blender I/O v1.6.16",
        "version" : "2.0"
    },
    "scene" : 0,
    "scenes" : [
        {
            "name" : "Scene",
            "nodes" : [
                0
            ]
        }
    ],
    "nodes" : [
        {
            "mesh" : 0,
            "name" : "Drops"
        }
    ],
    "materials" : [
        {
            "doubleSided" : true,
            "name" : "Drops",
            "normalTexture" : {
                "index" : 0,
                "scale" : 0.30000001192092896
            },
            "pbrMetallicRoughness" : {
                "baseColorTexture" : {
                    "index" : 1
                },
                "metallicFactor" : 0,
                "roughnessFactor" : 0.8945907354354858
            }
        }
    ],
    "meshes" : [
        {
            "name" : "Drops",
            "primitives" : [
                {
                    "attributes" : {
                        "POSITION" : 0,
                        "NORMAL" : 1,
                        "TEXCOORD_0" : 2
                    },
                    "indices" : 3,
                    "material" : 0
                }
            ]
        }
    ],
    "textures" : [
        {
            "sampler" : 0,
            "source" : 0
        },
        {
            "sampler" : 0,
            "source" : 1
        }
    ],
    "images" : [
        {
            "bufferView" : 4,
            "mimeType" : "image/png",
            "name" : "Map__4_Normal_Bump"
        },
        {
            "bufferView" : 5,
            "mimeType" : "image/png",
            "name" : "DropsMetal"
        }
    ],
    "accessors" : [
        {
            "bufferView" : 0,
            "componentType" : 5126,
            "count" : 619,
            "max" : [
                11.329739570617676,
                25.007205963134766,
                11.32945442199707
            ],
            "min" : [
                -11.32852554321289,
                -14.221149444580078,
                -11.329734802246094
            ],
            "type" : "VEC3"
        },
        {
            "bufferView" : 1,
            "componentType" : 5126,
            "count" : 619,
            "type" : "VEC3"
        },
        {
            "bufferView" : 2,
            "componentType" : 5126,
            "count" : 619,
            "type" : "VEC2"
        },
        {
            "bufferView" : 3,
            "componentType" : 5123,
            "count" : 3456,
            "type" : "SCALAR"
        }
    ],
    "bufferViews" : [
        {
            "buffer" : 0,
            "byteLength" : 7428,
            "byteOffset" : 0
        },
        {
            "buffer" : 0,
            "byteLength" : 7428,
            "byteOffset" : 7428
        },
        {
            "buffer" : 0,
            "byteLength" : 4952,
            "byteOffset" : 14856
        },
        {
            "buffer" : 0,
            "byteLength" : 6912,
            "byteOffset" : 19808
        },
        {
            "buffer" : 0,
            "byteLength" : 39027,
            "byteOffset" : 26720
        },
        {
            "buffer" : 0,
            "byteLength" : 21306,
            "byteOffset" : 65748
        }
    ],
    "samplers" : [
        {
            "magFilter" : 9729,
            "minFilter" : 9987
        }
    ],
    "buffers" : [
        {
            "byteLength" : 87056,
            "uri" : "data:application/octet-stream;base64,"
        }
    ]
}
