{
    "asset" : {
        "generator" : "Khronos glTF Blender I/O v1.6.16",
        "version" : "2.0"
    },
    "scene" : 0,
    "scenes" : [
        {
            "name" : "Scene",
            "nodes" : [
                0
            ]
        }
    ],
    "nodes" : [
        {
            "mesh" : 0,
            "name" : "Sphere"
        }
    ],
    "meshes" : [
        {
            "name" : "Sphere",
            "primitives" : [
                {
                    "attributes" : {
                        "POSITION" : 0,
                        "NORMAL" : 1,
                        "TEXCOORD_0" : 2
                    },
                    "indices" : 3
                }
            ]
        }
    ],
    "accessors" : [
        {
            "bufferView" : 0,
            "componentType" : 5126,
            "count" : 16464,
            "max" : [
                5.221796035766602,
                5.182369232177734,
                5.23209285736084
            ],
            "min" : [
                -5.194077014923096,
                -5.227294921875,
                -5.179839611053467
            ],
            "type" : "VEC3"
        },
        {
            "bufferView" : 1,
            "componentType" : 5126,
            "count" : 16464,
            "type" : "VEC3"
        },
        {
            "bufferView" : 2,
            "componentType" : 5126,
            "count" : 16464,
            "type" : "VEC2"
        },
        {
            "bufferView" : 3,
            "componentType" : 5123,
            "count" : 24696,
            "type" : "SCALAR"
        }
    ],
    "bufferViews" : [
        {
            "buffer" : 0,
            "byteLength" : 197568,
            "byteOffset" : 0
        },
        {
            "buffer" : 0,
            "byteLength" : 197568,
            "byteOffset" : 197568
        },
        {
            "buffer" : 0,
            "byteLength" : 131712,
            "byteOffset" : 395136
        },
        {
            "buffer" : 0,
            "byteLength" : 49392,
            "byteOffset" : 526848
        }
    ],
    "buffers" : [
        {
            "byteLength" : 576240,
            "uri" : "data:application/octet-stream;base64,"
        }
    ]
}
